# xmcd
#
# Track frame offsets:
#	150
#	9320
#	18193
#	37461
#	54002
#	70921
#	85194
#	105498
#	120627
#	144917
#	163483
#	184371
#	201030
#	226419
#	240935
#	266629
#	285105
#	310556
#
# Disc length: 4374 seconds
#
# Revision: 1
# Processed by: cddbd v1.4PL0 Copyright (c) Steve Scherf et al.
# Submitted via: audiograbber 1.82.02
#
DISCID=e6111412
DTITLE=Bill Withers - Lean On Me: The Best Of Bill Withers
DYEAR=1994
DGENRE=Rhythmic Soul
TTITLE0=Ain't No Sunshine
TTITLE1=Grandma's Hands
TTITLE2=Lean On Me
TTITLE3=Use Me
TTITLE4=Kissing My Love
TTITLE5=Who Is He? (And What Is He To You?)
TTITLE6=I Don't Want You On My Mind
TTITLE7=The Same Love That Made Me Laugh
TTITLE8=Hello Like Before
TTITLE9=Lovely Day
TTITLE10=Let Me Be The One You Need
TTITLE11=I Want To Spend The Night
TTITLE12=Steppin' Right Along
TTITLE13=Wahtever Happens
TTITLE14=Watching You Watching Me
TTITLE15=Heart In You Life
TTITLE16=You Try To Find A Love
TTITLE17=Just The Two Of Us
EXTD=
EXTT0=
EXTT1=
EXTT2=
EXTT3=
EXTT4=
EXTT5=
EXTT6=
EXTT7=
EXTT8=
EXTT9=
EXTT10=
EXTT11=
EXTT12=
EXTT13=
EXTT14=
EXTT15=
EXTT16=
EXTT17=
PLAYORDER=
